# xmcd CD database file
#
# Track frame offsets:
#	150
#	11946
#	23035
#	31067
#	55160
#	67892
#	88432
#	100228
#	111392
#	119424
#
# Disc length: 1909 seconds
#
# Revision: 0
# Processed by: cddbd v1.5.2PL0 Copyright (c) Steve Scherf et al.
# Submitted via: CDex 1.70beta3
#
DISCID=8307730a
DTITLE=Alissa - Alissa 1
DYEAR=2015
DGENRE=Jazz
TTITLE0=Cry Me A River
TTITLE1=BlueMoon
TTITLE2=Hot Toddy
TTITLE3=What a Difference A Day Makes
TTITLE4=Something Stupid
TTITLE5=What A Difference A Day Made
TTITLE6=Cry Me A River (inst)
TTITLE7=BlueMoon (inst)
TTITLE8=Hot Toddy (inst)
TTITLE9=What A Difference A Day Makes (inst)
EXTD=YEAR: 2015
EXTT0=
EXTT1=
EXTT2=
EXTT3=
EXTT4=
EXTT5=
EXTT6=
EXTT7=
EXTT8=
EXTT9=
PLAYORDER=
